<?xml version="1.0" standalone="no"?>
<!DOCTYPE svg PUBLIC "-//W3C//DTD SVG 20010904//EN"
 "http://www.w3.org/TR/2001/REC-SVG-20010904/DTD/svg10.dtd">
<svg version="1.0" xmlns="http://www.w3.org/2000/svg"
 width="281.000000pt" height="192.000000pt" viewBox="0 0 281.000000 192.000000"
 preserveAspectRatio="xMidYMid meet">

<g transform="translate(0.000000,192.000000) scale(0.100000,-0.100000)"
fill="#000000" stroke="none">
<path d="M2015 1756 c-16 -8 -44 -29 -61 -47 -17 -19 -128 -225 -247 -459
-119 -234 -245 -481 -280 -549 l-65 -125 -82 165 c-101 202 -109 213 -165 234
-54 21 -103 14 -144 -21 -26 -21 -169 -271 -179 -312 -10 -37 -35 18 -120 264
-81 234 -97 273 -127 301 -18 17 -50 35 -70 39 -48 9 -118 -19 -146 -57 -40
-56 -36 -92 26 -280 32 -96 61 -178 65 -184 4 -5 11 -21 15 -35 3 -14 45 -137
92 -275 60 -177 93 -258 111 -278 53 -56 147 -60 202 -9 16 15 70 105 121 200
50 94 93 172 95 172 2 0 40 -71 83 -159 51 -101 91 -167 111 -184 55 -47 154
-49 213 -4 34 26 24 7 427 797 122 239 224 437 226 439 2 2 52 -43 111 -101
l107 -106 -62 -70 c-34 -38 -62 -75 -62 -81 0 -12 350 -16 434 -5 l46 7 -6
226 c-4 130 -11 232 -17 239 -8 10 -23 0 -68 -44 l-58 -57 -177 173 c-98 95
-192 179 -211 186 -41 17 -99 17 -138 0z"/>
</g>
</svg>
